<svg xmlns="http://www.w3.org/2000/svg" xmlns:svg="http://www.w3.org/2000/svg" xmlns:xlink="http://www.w3.org/1999/xlink" id="svg1" width="210mm" height="297mm" version="1.1" viewBox="0 0 210 297"><defs id="defs1"><linearGradient id="linearGradient57"><stop style="stop-color:#21222e;stop-opacity:1" id="stop57" offset="0"/><stop style="stop-color:#14151c;stop-opacity:1" id="stop58" offset="1"/></linearGradient><linearGradient id="linearGradient55"><stop style="stop-color:#a57114;stop-opacity:1" id="stop55" offset="0"/><stop style="stop-color:#946512;stop-opacity:1" id="stop56" offset="1"/></linearGradient><linearGradient id="linearGradient53"><stop style="stop-color:#ffbc46;stop-opacity:1" id="stop53" offset="0"/><stop style="stop-color:#ffaf25;stop-opacity:1" id="stop54" offset="1"/></linearGradient><linearGradient id="linearGradient54" x1="112.499" x2="121.125" y1="101.745" y2="145.524" gradientUnits="userSpaceOnUse" xlink:href="#linearGradient53"/><linearGradient id="linearGradient56" x1="93.411" x2="129.388" y1="112.473" y2="100.521" gradientUnits="userSpaceOnUse" xlink:href="#linearGradient55"/><linearGradient id="linearGradient58" x1="93.018" x2="121.043" y1="74.713" y2="179.488" gradientUnits="userSpaceOnUse" xlink:href="#linearGradient57"/></defs><g id="layer1"><rect style="fill:url(#linearGradient58);fill-opacity:1;stroke-width:.264583" id="rect5" width="108.459" height="108.459" x="58.093" y="72.606" rx="0" ry="0"/><path id="rect18-0-6-3-8-4" d="m 91.851525,120.12118 3.02e-4,-2.50438 -0.0058,0.002 6.83e-4,-12.85289 33.87597,-8.37875 a 1.9902852,1.9902852 36.963135 0 1 2.5046,1.884828 l 0.006,-0.0015 -7.7e-4,12.867592 -14.08223,3.47794 -5.5e-4,-0.002 z" transform="matrix(0.41315394,0.30208423,0.71578168,-0.97895888,-37.319105,211.92006)" style="fill:url(#linearGradient56);stroke-width:.264583;paint-order:fill markers stroke"/><path id="rect18-0-6-5-1-0" d="m 103.07756,102.04384 -8.726438,11.95206 13.229098,30.43525 a 0.91764471,0.91764471 6.3194682 0 0 1.58273,0.17528 l 9.08918,-12.44988 -12.98202,-29.86981 a 1.2712186,1.2712186 6.3215996 0 0 -2.19255,-0.2429 z m 21.11886,0.12204 -8.63767,11.83003 13.24046,30.46054 a 0.9018527,0.9018527 6.3191864 0 0 1.55548,0.17225 l 9.10545,-12.47214 -12.92178,-29.73121 a 1.3578434,1.3578434 6.3221124 0 0 -2.34194,-0.25947 z" transform="matrix(1.2682396,0,0,1.2682396,-28.899329,-28.122368)" style="fill:url(#linearGradient54);stroke-width:.16436;paint-order:fill markers stroke"/></g></svg>